<mxfile host="app.diagrams.net" modified="2020-06-22T11:56:18.701Z" agent="5.0 (Macintosh; Intel Mac OS X 10_14_6) AppleWebKit/605.1.15 (KHTML, like Gecko) Version/13.1.1 Safari/605.1.15" etag="uB5G6-F1DnKIC4KvfGro" version="13.2.6" type="github">
  <diagram id="uwtyysx4m1KapevDH-VO" name="Page-1">
    <mxGraphModel dx="1186" dy="723" grid="1" gridSize="10" guides="1" tooltips="1" connect="1" arrows="1" fold="1" page="1" pageScale="1" pageWidth="850" pageHeight="1100" background="none" math="0" shadow="0">
      <root>
        <mxCell id="0" />
        <mxCell id="1" parent="0" />
        <mxCell id="DK5eT5kbk5P_7S_4OPEw-1" value="Training" style="swimlane;fontStyle=0;childLayout=stackLayout;horizontal=1;startSize=26;fillColor=#ffe6cc;horizontalStack=0;resizeParent=1;resizeParentMax=0;resizeLast=0;collapsible=1;marginBottom=0;shadow=0;comic=0;glass=0;rounded=0;swimlaneFillColor=none;strokeColor=#d79b00;" parent="1" vertex="1">
          <mxGeometry x="100" y="60" width="140" height="182" as="geometry" />
        </mxCell>
        <mxCell id="DK5eT5kbk5P_7S_4OPEw-2" value="Id" style="text;strokeColor=#000000;fillColor=none;align=left;verticalAlign=top;spacingLeft=4;spacingRight=4;overflow=hidden;rotatable=0;points=[[0,0.5],[1,0.5]];portConstraint=eastwest;fontStyle=1;shadow=0;comic=0;" parent="DK5eT5kbk5P_7S_4OPEw-1" vertex="1">
          <mxGeometry y="26" width="140" height="26" as="geometry" />
        </mxCell>
        <mxCell id="DK5eT5kbk5P_7S_4OPEw-3" value="Name" style="text;strokeColor=#000000;fillColor=none;align=left;verticalAlign=top;spacingLeft=4;spacingRight=4;overflow=hidden;rotatable=0;points=[[0,0.5],[1,0.5]];portConstraint=eastwest;shadow=0;comic=0;" parent="DK5eT5kbk5P_7S_4OPEw-1" vertex="1">
          <mxGeometry y="52" width="140" height="26" as="geometry" />
        </mxCell>
        <mxCell id="DK5eT5kbk5P_7S_4OPEw-8" value="CategoryId" style="text;strokeColor=#000000;fillColor=none;align=left;verticalAlign=top;spacingLeft=4;spacingRight=4;overflow=hidden;rotatable=0;points=[[0,0.5],[1,0.5]];portConstraint=eastwest;shadow=0;comic=0;" parent="DK5eT5kbk5P_7S_4OPEw-1" vertex="1">
          <mxGeometry y="78" width="140" height="26" as="geometry" />
        </mxCell>
        <mxCell id="DK5eT5kbk5P_7S_4OPEw-48" value="Availability" style="text;strokeColor=#000000;fillColor=none;align=left;verticalAlign=top;spacingLeft=4;spacingRight=4;overflow=hidden;rotatable=0;points=[[0,0.5],[1,0.5]];portConstraint=eastwest;shadow=0;comic=0;" parent="DK5eT5kbk5P_7S_4OPEw-1" vertex="1">
          <mxGeometry y="104" width="140" height="26" as="geometry" />
        </mxCell>
        <mxCell id="DK5eT5kbk5P_7S_4OPEw-59" value="ExternalLink" style="text;strokeColor=#000000;fillColor=none;align=left;verticalAlign=top;spacingLeft=4;spacingRight=4;overflow=hidden;rotatable=0;points=[[0,0.5],[1,0.5]];portConstraint=eastwest;shadow=0;comic=0;" parent="DK5eT5kbk5P_7S_4OPEw-1" vertex="1">
          <mxGeometry y="130" width="140" height="26" as="geometry" />
        </mxCell>
        <mxCell id="DK5eT5kbk5P_7S_4OPEw-73" value="ManufacturerId" style="text;strokeColor=#000000;fillColor=none;align=left;verticalAlign=top;spacingLeft=4;spacingRight=4;overflow=hidden;rotatable=0;points=[[0,0.5],[1,0.5]];portConstraint=eastwest;shadow=0;comic=0;" parent="DK5eT5kbk5P_7S_4OPEw-1" vertex="1">
          <mxGeometry y="156" width="140" height="26" as="geometry" />
        </mxCell>
        <mxCell id="DK5eT5kbk5P_7S_4OPEw-27" style="edgeStyle=orthogonalEdgeStyle;rounded=0;orthogonalLoop=1;jettySize=auto;html=1;entryX=1;entryY=0.5;entryDx=0;entryDy=0;strokeWidth=2;shadow=0;comic=0;" parent="1" source="DK5eT5kbk5P_7S_4OPEw-18" target="DK5eT5kbk5P_7S_4OPEw-2" edge="1">
          <mxGeometry relative="1" as="geometry" />
        </mxCell>
        <mxCell id="DK5eT5kbk5P_7S_4OPEw-28" style="edgeStyle=orthogonalEdgeStyle;rounded=0;orthogonalLoop=1;jettySize=auto;html=1;entryX=1;entryY=0.5;entryDx=0;entryDy=0;strokeWidth=2;shadow=0;comic=0;" parent="1" source="DK5eT5kbk5P_7S_4OPEw-19" target="DK5eT5kbk5P_7S_4OPEw-10" edge="1">
          <mxGeometry relative="1" as="geometry" />
        </mxCell>
        <mxCell id="DK5eT5kbk5P_7S_4OPEw-31" value="Phase" style="swimlane;fontStyle=0;childLayout=stackLayout;horizontal=1;startSize=26;fillColor=#ffe6cc;horizontalStack=0;resizeParent=1;resizeParentMax=0;resizeLast=0;collapsible=1;marginBottom=0;shadow=0;comic=0;glass=0;rounded=0;swimlaneFillColor=none;strokeColor=#d79b00;" parent="1" vertex="1">
          <mxGeometry x="560" y="360" width="140" height="130" as="geometry" />
        </mxCell>
        <mxCell id="DK5eT5kbk5P_7S_4OPEw-32" value="Id" style="text;strokeColor=#000000;fillColor=none;align=left;verticalAlign=top;spacingLeft=4;spacingRight=4;overflow=hidden;rotatable=0;points=[[0,0.5],[1,0.5]];portConstraint=eastwest;fontStyle=1;shadow=0;comic=0;" parent="DK5eT5kbk5P_7S_4OPEw-31" vertex="1">
          <mxGeometry y="26" width="140" height="26" as="geometry" />
        </mxCell>
        <mxCell id="DK5eT5kbk5P_7S_4OPEw-33" value="PhaseName" style="text;strokeColor=#000000;fillColor=none;align=left;verticalAlign=top;spacingLeft=4;spacingRight=4;overflow=hidden;rotatable=0;points=[[0,0.5],[1,0.5]];portConstraint=eastwest;shadow=0;comic=0;" parent="DK5eT5kbk5P_7S_4OPEw-31" vertex="1">
          <mxGeometry y="52" width="140" height="26" as="geometry" />
        </mxCell>
        <mxCell id="DK5eT5kbk5P_7S_4OPEw-34" value="Desciption" style="text;strokeColor=#000000;fillColor=none;align=left;verticalAlign=top;spacingLeft=4;spacingRight=4;overflow=hidden;rotatable=0;points=[[0,0.5],[1,0.5]];portConstraint=eastwest;shadow=0;comic=0;" parent="DK5eT5kbk5P_7S_4OPEw-31" vertex="1">
          <mxGeometry y="78" width="140" height="26" as="geometry" />
        </mxCell>
        <mxCell id="DK5eT5kbk5P_7S_4OPEw-35" value="............." style="text;strokeColor=#000000;fillColor=none;align=left;verticalAlign=top;spacingLeft=4;spacingRight=4;overflow=hidden;rotatable=0;points=[[0,0.5],[1,0.5]];portConstraint=eastwest;shadow=0;comic=0;" parent="DK5eT5kbk5P_7S_4OPEw-31" vertex="1">
          <mxGeometry y="104" width="140" height="26" as="geometry" />
        </mxCell>
        <mxCell id="DK5eT5kbk5P_7S_4OPEw-37" value="Badge" style="swimlane;fontStyle=0;childLayout=stackLayout;horizontal=1;startSize=26;fillColor=#ffe6cc;horizontalStack=0;resizeParent=1;resizeParentMax=0;resizeLast=0;collapsible=1;marginBottom=0;shadow=0;comic=0;glass=0;rounded=0;swimlaneFillColor=none;strokeColor=#d79b00;" parent="1" vertex="1">
          <mxGeometry x="560" y="520" width="140" height="156" as="geometry" />
        </mxCell>
        <mxCell id="DK5eT5kbk5P_7S_4OPEw-38" value="Id" style="text;strokeColor=#000000;fillColor=none;align=left;verticalAlign=top;spacingLeft=4;spacingRight=4;overflow=hidden;rotatable=0;points=[[0,0.5],[1,0.5]];portConstraint=eastwest;fontStyle=1;shadow=0;comic=0;" parent="DK5eT5kbk5P_7S_4OPEw-37" vertex="1">
          <mxGeometry y="26" width="140" height="26" as="geometry" />
        </mxCell>
        <mxCell id="DK5eT5kbk5P_7S_4OPEw-39" value="NameBeforeAchieved" style="text;strokeColor=#000000;fillColor=none;align=left;verticalAlign=top;spacingLeft=4;spacingRight=4;overflow=hidden;rotatable=0;points=[[0,0.5],[1,0.5]];portConstraint=eastwest;shadow=0;comic=0;" parent="DK5eT5kbk5P_7S_4OPEw-37" vertex="1">
          <mxGeometry y="52" width="140" height="26" as="geometry" />
        </mxCell>
        <mxCell id="DK5eT5kbk5P_7S_4OPEw-40" value="NameAfterAchieved" style="text;strokeColor=#000000;fillColor=none;align=left;verticalAlign=top;spacingLeft=4;spacingRight=4;overflow=hidden;rotatable=0;points=[[0,0.5],[1,0.5]];portConstraint=eastwest;shadow=0;comic=0;" parent="DK5eT5kbk5P_7S_4OPEw-37" vertex="1">
          <mxGeometry y="78" width="140" height="26" as="geometry" />
        </mxCell>
        <mxCell id="DK5eT5kbk5P_7S_4OPEw-41" value="AchievmentMessage" style="text;strokeColor=#000000;fillColor=none;align=left;verticalAlign=top;spacingLeft=4;spacingRight=4;overflow=hidden;rotatable=0;points=[[0,0.5],[1,0.5]];portConstraint=eastwest;shadow=0;comic=0;" parent="DK5eT5kbk5P_7S_4OPEw-37" vertex="1">
          <mxGeometry y="104" width="140" height="26" as="geometry" />
        </mxCell>
        <mxCell id="DK5eT5kbk5P_7S_4OPEw-42" value="............." style="text;strokeColor=#000000;fillColor=none;align=left;verticalAlign=top;spacingLeft=4;spacingRight=4;overflow=hidden;rotatable=0;points=[[0,0.5],[1,0.5]];portConstraint=eastwest;shadow=0;comic=0;" parent="DK5eT5kbk5P_7S_4OPEw-37" vertex="1">
          <mxGeometry y="130" width="140" height="26" as="geometry" />
        </mxCell>
        <mxCell id="DK5eT5kbk5P_7S_4OPEw-43" style="edgeStyle=orthogonalEdgeStyle;rounded=0;orthogonalLoop=1;jettySize=auto;html=1;entryX=1;entryY=0.5;entryDx=0;entryDy=0;strokeWidth=2;shadow=0;comic=0;" parent="1" source="DK5eT5kbk5P_7S_4OPEw-38" target="DK5eT5kbk5P_7S_4OPEw-26" edge="1">
          <mxGeometry relative="1" as="geometry">
            <Array as="points">
              <mxPoint x="510" y="559" />
              <mxPoint x="510" y="371" />
            </Array>
          </mxGeometry>
        </mxCell>
        <mxCell id="DK5eT5kbk5P_7S_4OPEw-9" value="User" style="swimlane;fontStyle=0;childLayout=stackLayout;horizontal=1;startSize=26;fillColor=#ffe6cc;horizontalStack=0;resizeParent=1;resizeParentMax=0;resizeLast=0;collapsible=1;marginBottom=0;shadow=0;comic=0;glass=0;rounded=0;swimlaneFillColor=none;strokeColor=#d79b00;" parent="1" vertex="1">
          <mxGeometry x="100" y="320" width="140" height="130" as="geometry" />
        </mxCell>
        <mxCell id="DK5eT5kbk5P_7S_4OPEw-10" value="Id" style="text;strokeColor=#000000;fillColor=none;align=left;verticalAlign=top;spacingLeft=4;spacingRight=4;overflow=hidden;rotatable=0;points=[[0,0.5],[1,0.5]];portConstraint=eastwest;fontStyle=1;shadow=0;comic=0;" parent="DK5eT5kbk5P_7S_4OPEw-9" vertex="1">
          <mxGeometry y="26" width="140" height="26" as="geometry" />
        </mxCell>
        <mxCell id="DK5eT5kbk5P_7S_4OPEw-11" value="FirstName" style="text;strokeColor=#000000;fillColor=none;align=left;verticalAlign=top;spacingLeft=4;spacingRight=4;overflow=hidden;rotatable=0;points=[[0,0.5],[1,0.5]];portConstraint=eastwest;shadow=0;comic=0;" parent="DK5eT5kbk5P_7S_4OPEw-9" vertex="1">
          <mxGeometry y="52" width="140" height="26" as="geometry" />
        </mxCell>
        <mxCell id="DK5eT5kbk5P_7S_4OPEw-12" value="LastName" style="text;strokeColor=#000000;fillColor=none;align=left;verticalAlign=top;spacingLeft=4;spacingRight=4;overflow=hidden;rotatable=0;points=[[0,0.5],[1,0.5]];portConstraint=eastwest;shadow=0;comic=0;" parent="DK5eT5kbk5P_7S_4OPEw-9" vertex="1">
          <mxGeometry y="78" width="140" height="26" as="geometry" />
        </mxCell>
        <mxCell id="DK5eT5kbk5P_7S_4OPEw-13" value="............." style="text;strokeColor=#000000;fillColor=none;align=left;verticalAlign=top;spacingLeft=4;spacingRight=4;overflow=hidden;rotatable=0;points=[[0,0.5],[1,0.5]];portConstraint=eastwest;shadow=0;comic=0;" parent="DK5eT5kbk5P_7S_4OPEw-9" vertex="1">
          <mxGeometry y="104" width="140" height="26" as="geometry" />
        </mxCell>
        <mxCell id="DK5eT5kbk5P_7S_4OPEw-54" style="edgeStyle=orthogonalEdgeStyle;rounded=0;comic=0;orthogonalLoop=1;jettySize=auto;html=1;entryX=0;entryY=0.5;entryDx=0;entryDy=0;shadow=0;strokeWidth=2;" parent="1" source="DK5eT5kbk5P_7S_4OPEw-8" target="DK5eT5kbk5P_7S_4OPEw-50" edge="1">
          <mxGeometry relative="1" as="geometry">
            <Array as="points">
              <mxPoint x="320" y="151" />
              <mxPoint x="320" y="79" />
            </Array>
          </mxGeometry>
        </mxCell>
        <mxCell id="DK5eT5kbk5P_7S_4OPEw-16" value="TrainingUser" style="swimlane;fontStyle=0;childLayout=stackLayout;horizontal=1;startSize=26;fillColor=#ffe6cc;horizontalStack=0;resizeParent=1;resizeParentMax=0;resizeLast=0;collapsible=1;marginBottom=0;shadow=0;comic=0;glass=0;rounded=0;swimlaneFillColor=none;strokeColor=#d79b00;" parent="1" vertex="1">
          <mxGeometry x="340" y="150" width="140" height="338" as="geometry" />
        </mxCell>
        <mxCell id="DK5eT5kbk5P_7S_4OPEw-17" value="Id" style="text;strokeColor=#000000;fillColor=none;align=left;verticalAlign=top;spacingLeft=4;spacingRight=4;overflow=hidden;rotatable=0;points=[[0,0.5],[1,0.5]];portConstraint=eastwest;fontStyle=1;shadow=0;comic=0;" parent="DK5eT5kbk5P_7S_4OPEw-16" vertex="1">
          <mxGeometry y="26" width="140" height="26" as="geometry" />
        </mxCell>
        <mxCell id="DK5eT5kbk5P_7S_4OPEw-18" value="TrainingId" style="text;strokeColor=#000000;fillColor=none;align=left;verticalAlign=top;spacingLeft=4;spacingRight=4;overflow=hidden;rotatable=0;points=[[0,0.5],[1,0.5]];portConstraint=eastwest;shadow=0;comic=0;" parent="DK5eT5kbk5P_7S_4OPEw-16" vertex="1">
          <mxGeometry y="52" width="140" height="26" as="geometry" />
        </mxCell>
        <mxCell id="DK5eT5kbk5P_7S_4OPEw-19" value="UserId" style="text;strokeColor=#000000;fillColor=none;align=left;verticalAlign=top;spacingLeft=4;spacingRight=4;overflow=hidden;rotatable=0;points=[[0,0.5],[1,0.5]];portConstraint=eastwest;shadow=0;comic=0;" parent="DK5eT5kbk5P_7S_4OPEw-16" vertex="1">
          <mxGeometry y="78" width="140" height="26" as="geometry" />
        </mxCell>
        <mxCell id="DK5eT5kbk5P_7S_4OPEw-21" value="IsMandatory" style="text;strokeColor=#000000;fillColor=none;align=left;verticalAlign=top;spacingLeft=4;spacingRight=4;overflow=hidden;rotatable=0;points=[[0,0.5],[1,0.5]];portConstraint=eastwest;shadow=0;comic=0;" parent="DK5eT5kbk5P_7S_4OPEw-16" vertex="1">
          <mxGeometry y="104" width="140" height="26" as="geometry" />
        </mxCell>
        <mxCell id="DK5eT5kbk5P_7S_4OPEw-23" value="IsCompleted" style="text;strokeColor=#000000;fillColor=none;align=left;verticalAlign=top;spacingLeft=4;spacingRight=4;overflow=hidden;rotatable=0;points=[[0,0.5],[1,0.5]];portConstraint=eastwest;shadow=0;comic=0;" parent="DK5eT5kbk5P_7S_4OPEw-16" vertex="1">
          <mxGeometry y="130" width="140" height="26" as="geometry" />
        </mxCell>
        <mxCell id="DK5eT5kbk5P_7S_4OPEw-24" value="Score" style="text;strokeColor=#000000;fillColor=none;align=left;verticalAlign=top;spacingLeft=4;spacingRight=4;overflow=hidden;rotatable=0;points=[[0,0.5],[1,0.5]];portConstraint=eastwest;shadow=0;comic=0;" parent="DK5eT5kbk5P_7S_4OPEw-16" vertex="1">
          <mxGeometry y="156" width="140" height="26" as="geometry" />
        </mxCell>
        <mxCell id="DK5eT5kbk5P_7S_4OPEw-25" value="PhaseId" style="text;strokeColor=#000000;fillColor=none;align=left;verticalAlign=top;spacingLeft=4;spacingRight=4;overflow=hidden;rotatable=0;points=[[0,0.5],[1,0.5]];portConstraint=eastwest;shadow=0;comic=0;" parent="DK5eT5kbk5P_7S_4OPEw-16" vertex="1">
          <mxGeometry y="182" width="140" height="26" as="geometry" />
        </mxCell>
        <mxCell id="DK5eT5kbk5P_7S_4OPEw-26" value="BadgeId" style="text;strokeColor=#000000;fillColor=none;align=left;verticalAlign=top;spacingLeft=4;spacingRight=4;overflow=hidden;rotatable=0;points=[[0,0.5],[1,0.5]];portConstraint=eastwest;shadow=0;comic=0;" parent="DK5eT5kbk5P_7S_4OPEw-16" vertex="1">
          <mxGeometry y="208" width="140" height="26" as="geometry" />
        </mxCell>
        <mxCell id="DK5eT5kbk5P_7S_4OPEw-46" value="DateCompleted" style="text;strokeColor=#000000;fillColor=none;align=left;verticalAlign=top;spacingLeft=4;spacingRight=4;overflow=hidden;rotatable=0;points=[[0,0.5],[1,0.5]];portConstraint=eastwest;shadow=0;comic=0;" parent="DK5eT5kbk5P_7S_4OPEw-16" vertex="1">
          <mxGeometry y="234" width="140" height="26" as="geometry" />
        </mxCell>
        <mxCell id="DK5eT5kbk5P_7S_4OPEw-47" value="ExpirationDate" style="text;strokeColor=#000000;fillColor=none;align=left;verticalAlign=top;spacingLeft=4;spacingRight=4;overflow=hidden;rotatable=0;points=[[0,0.5],[1,0.5]];portConstraint=eastwest;shadow=0;comic=0;" parent="DK5eT5kbk5P_7S_4OPEw-16" vertex="1">
          <mxGeometry y="260" width="140" height="26" as="geometry" />
        </mxCell>
        <mxCell id="Cdiy6JWCYsth_nG0e7zZ-1" value="IsAttending" style="text;strokeColor=#000000;fillColor=none;align=left;verticalAlign=top;spacingLeft=4;spacingRight=4;overflow=hidden;rotatable=0;points=[[0,0.5],[1,0.5]];portConstraint=eastwest;shadow=0;comic=0;" vertex="1" parent="DK5eT5kbk5P_7S_4OPEw-16">
          <mxGeometry y="286" width="140" height="26" as="geometry" />
        </mxCell>
        <mxCell id="Cdiy6JWCYsth_nG0e7zZ-15" value="Quarter" style="text;strokeColor=#000000;fillColor=none;align=left;verticalAlign=top;spacingLeft=4;spacingRight=4;overflow=hidden;rotatable=0;points=[[0,0.5],[1,0.5]];portConstraint=eastwest;shadow=0;comic=0;" vertex="1" parent="DK5eT5kbk5P_7S_4OPEw-16">
          <mxGeometry y="312" width="140" height="26" as="geometry" />
        </mxCell>
        <mxCell id="DK5eT5kbk5P_7S_4OPEw-58" style="edgeStyle=orthogonalEdgeStyle;rounded=0;comic=0;orthogonalLoop=1;jettySize=auto;html=1;entryX=1;entryY=0.5;entryDx=0;entryDy=0;shadow=0;strokeWidth=2;" parent="1" source="DK5eT5kbk5P_7S_4OPEw-32" target="DK5eT5kbk5P_7S_4OPEw-25" edge="1">
          <mxGeometry relative="1" as="geometry" />
        </mxCell>
        <mxCell id="DK5eT5kbk5P_7S_4OPEw-49" value="TrainingCategory" style="swimlane;fontStyle=0;childLayout=stackLayout;horizontal=1;startSize=26;fillColor=#ffe6cc;horizontalStack=0;resizeParent=1;resizeParentMax=0;resizeLast=0;collapsible=1;marginBottom=0;shadow=0;comic=0;glass=0;rounded=0;swimlaneFillColor=none;strokeColor=#d79b00;" parent="1" vertex="1">
          <mxGeometry x="560" y="40" width="140" height="130" as="geometry" />
        </mxCell>
        <mxCell id="DK5eT5kbk5P_7S_4OPEw-50" value="Id" style="text;strokeColor=#000000;fillColor=none;align=left;verticalAlign=top;spacingLeft=4;spacingRight=4;overflow=hidden;rotatable=0;points=[[0,0.5],[1,0.5]];portConstraint=eastwest;fontStyle=1;shadow=0;comic=0;" parent="DK5eT5kbk5P_7S_4OPEw-49" vertex="1">
          <mxGeometry y="26" width="140" height="26" as="geometry" />
        </mxCell>
        <mxCell id="DK5eT5kbk5P_7S_4OPEw-51" value="Name" style="text;strokeColor=#000000;fillColor=none;align=left;verticalAlign=top;spacingLeft=4;spacingRight=4;overflow=hidden;rotatable=0;points=[[0,0.5],[1,0.5]];portConstraint=eastwest;shadow=0;comic=0;" parent="DK5eT5kbk5P_7S_4OPEw-49" vertex="1">
          <mxGeometry y="52" width="140" height="26" as="geometry" />
        </mxCell>
        <mxCell id="DK5eT5kbk5P_7S_4OPEw-52" value="Description" style="text;strokeColor=#000000;fillColor=none;align=left;verticalAlign=top;spacingLeft=4;spacingRight=4;overflow=hidden;rotatable=0;points=[[0,0.5],[1,0.5]];portConstraint=eastwest;shadow=0;comic=0;" parent="DK5eT5kbk5P_7S_4OPEw-49" vertex="1">
          <mxGeometry y="78" width="140" height="26" as="geometry" />
        </mxCell>
        <mxCell id="Cdiy6JWCYsth_nG0e7zZ-16" style="edgeStyle=orthogonalEdgeStyle;rounded=0;orthogonalLoop=1;jettySize=auto;html=1;entryX=1;entryY=0.5;entryDx=0;entryDy=0;strokeWidth=2;" edge="1" parent="DK5eT5kbk5P_7S_4OPEw-49" source="DK5eT5kbk5P_7S_4OPEw-55" target="DK5eT5kbk5P_7S_4OPEw-50">
          <mxGeometry relative="1" as="geometry">
            <Array as="points">
              <mxPoint x="160" y="117" />
              <mxPoint x="160" y="39" />
            </Array>
          </mxGeometry>
        </mxCell>
        <mxCell id="DK5eT5kbk5P_7S_4OPEw-55" value="ParentId" style="text;strokeColor=#000000;fillColor=none;align=left;verticalAlign=top;spacingLeft=4;spacingRight=4;overflow=hidden;rotatable=0;points=[[0,0.5],[1,0.5]];portConstraint=eastwest;shadow=0;comic=0;" parent="DK5eT5kbk5P_7S_4OPEw-49" vertex="1">
          <mxGeometry y="104" width="140" height="26" as="geometry" />
        </mxCell>
        <mxCell id="DK5eT5kbk5P_7S_4OPEw-67" value="Manufacturer" style="swimlane;fontStyle=0;childLayout=stackLayout;horizontal=1;startSize=26;fillColor=#ffe6cc;horizontalStack=0;resizeParent=1;resizeParentMax=0;resizeLast=0;collapsible=1;marginBottom=0;shadow=0;comic=0;glass=0;rounded=0;swimlaneFillColor=none;strokeColor=#d79b00;" parent="1" vertex="1">
          <mxGeometry x="100" y="730" width="140" height="104" as="geometry" />
        </mxCell>
        <mxCell id="DK5eT5kbk5P_7S_4OPEw-68" value="Id" style="text;strokeColor=#000000;fillColor=none;align=left;verticalAlign=top;spacingLeft=4;spacingRight=4;overflow=hidden;rotatable=0;points=[[0,0.5],[1,0.5]];portConstraint=eastwest;fontStyle=1;shadow=0;comic=0;" parent="DK5eT5kbk5P_7S_4OPEw-67" vertex="1">
          <mxGeometry y="26" width="140" height="26" as="geometry" />
        </mxCell>
        <mxCell id="DK5eT5kbk5P_7S_4OPEw-69" value="Name" style="text;strokeColor=#000000;fillColor=none;align=left;verticalAlign=top;spacingLeft=4;spacingRight=4;overflow=hidden;rotatable=0;points=[[0,0.5],[1,0.5]];portConstraint=eastwest;shadow=0;comic=0;" parent="DK5eT5kbk5P_7S_4OPEw-67" vertex="1">
          <mxGeometry y="52" width="140" height="26" as="geometry" />
        </mxCell>
        <mxCell id="DK5eT5kbk5P_7S_4OPEw-70" value="Description" style="text;strokeColor=#000000;fillColor=none;align=left;verticalAlign=top;spacingLeft=4;spacingRight=4;overflow=hidden;rotatable=0;points=[[0,0.5],[1,0.5]];portConstraint=eastwest;shadow=0;comic=0;" parent="DK5eT5kbk5P_7S_4OPEw-67" vertex="1">
          <mxGeometry y="78" width="140" height="26" as="geometry" />
        </mxCell>
        <mxCell id="DK5eT5kbk5P_7S_4OPEw-74" style="edgeStyle=orthogonalEdgeStyle;rounded=0;comic=0;orthogonalLoop=1;jettySize=auto;html=1;entryX=0;entryY=0.5;entryDx=0;entryDy=0;shadow=0;strokeWidth=2;" parent="1" source="DK5eT5kbk5P_7S_4OPEw-73" target="DK5eT5kbk5P_7S_4OPEw-68" edge="1">
          <mxGeometry relative="1" as="geometry">
            <Array as="points">
              <mxPoint x="30" y="230" />
              <mxPoint x="30" y="769" />
            </Array>
          </mxGeometry>
        </mxCell>
        <mxCell id="DK5eT5kbk5P_7S_4OPEw-94" value="Quiz" style="swimlane;fontStyle=0;childLayout=stackLayout;horizontal=1;startSize=26;fillColor=#ffe6cc;horizontalStack=0;resizeParent=1;resizeParentMax=0;resizeLast=0;collapsible=1;marginBottom=0;shadow=0;comic=0;glass=0;rounded=0;swimlaneFillColor=none;strokeColor=#d79b00;" parent="1" vertex="1">
          <mxGeometry x="100" y="870" width="140" height="156" as="geometry" />
        </mxCell>
        <mxCell id="DK5eT5kbk5P_7S_4OPEw-95" value="Id" style="text;strokeColor=#000000;fillColor=none;align=left;verticalAlign=top;spacingLeft=4;spacingRight=4;overflow=hidden;rotatable=0;points=[[0,0.5],[1,0.5]];portConstraint=eastwest;fontStyle=1;shadow=0;comic=0;" parent="DK5eT5kbk5P_7S_4OPEw-94" vertex="1">
          <mxGeometry y="26" width="140" height="26" as="geometry" />
        </mxCell>
        <mxCell id="DK5eT5kbk5P_7S_4OPEw-96" value="Name" style="text;strokeColor=#000000;fillColor=none;align=left;verticalAlign=top;spacingLeft=4;spacingRight=4;overflow=hidden;rotatable=0;points=[[0,0.5],[1,0.5]];portConstraint=eastwest;shadow=0;comic=0;" parent="DK5eT5kbk5P_7S_4OPEw-94" vertex="1">
          <mxGeometry y="52" width="140" height="26" as="geometry" />
        </mxCell>
        <mxCell id="DK5eT5kbk5P_7S_4OPEw-97" value="Description" style="text;strokeColor=#000000;fillColor=none;align=left;verticalAlign=top;spacingLeft=4;spacingRight=4;overflow=hidden;rotatable=0;points=[[0,0.5],[1,0.5]];portConstraint=eastwest;shadow=0;comic=0;" parent="DK5eT5kbk5P_7S_4OPEw-94" vertex="1">
          <mxGeometry y="78" width="140" height="26" as="geometry" />
        </mxCell>
        <mxCell id="DK5eT5kbk5P_7S_4OPEw-98" value="Score" style="text;strokeColor=#000000;fillColor=none;align=left;verticalAlign=top;spacingLeft=4;spacingRight=4;overflow=hidden;rotatable=0;points=[[0,0.5],[1,0.5]];portConstraint=eastwest;shadow=0;comic=0;" parent="DK5eT5kbk5P_7S_4OPEw-94" vertex="1">
          <mxGeometry y="104" width="140" height="26" as="geometry" />
        </mxCell>
        <mxCell id="DK5eT5kbk5P_7S_4OPEw-99" value="............." style="text;strokeColor=#000000;fillColor=none;align=left;verticalAlign=top;spacingLeft=4;spacingRight=4;overflow=hidden;rotatable=0;points=[[0,0.5],[1,0.5]];portConstraint=eastwest;shadow=0;comic=0;" parent="DK5eT5kbk5P_7S_4OPEw-94" vertex="1">
          <mxGeometry y="130" width="140" height="26" as="geometry" />
        </mxCell>
        <mxCell id="DK5eT5kbk5P_7S_4OPEw-60" value="Content" style="swimlane;fontStyle=0;childLayout=stackLayout;horizontal=1;startSize=26;fillColor=#ffe6cc;horizontalStack=0;resizeParent=1;resizeParentMax=0;resizeLast=0;collapsible=1;marginBottom=0;shadow=0;comic=0;glass=0;rounded=0;swimlaneFillColor=none;strokeColor=#d79b00;" parent="1" vertex="1">
          <mxGeometry x="340" y="550" width="140" height="182" as="geometry" />
        </mxCell>
        <mxCell id="DK5eT5kbk5P_7S_4OPEw-61" value="Id" style="text;strokeColor=#000000;fillColor=none;align=left;verticalAlign=top;spacingLeft=4;spacingRight=4;overflow=hidden;rotatable=0;points=[[0,0.5],[1,0.5]];portConstraint=eastwest;fontStyle=1;shadow=0;comic=0;" parent="DK5eT5kbk5P_7S_4OPEw-60" vertex="1">
          <mxGeometry y="26" width="140" height="26" as="geometry" />
        </mxCell>
        <mxCell id="DK5eT5kbk5P_7S_4OPEw-62" value="Title" style="text;strokeColor=#000000;fillColor=none;align=left;verticalAlign=top;spacingLeft=4;spacingRight=4;overflow=hidden;rotatable=0;points=[[0,0.5],[1,0.5]];portConstraint=eastwest;shadow=0;comic=0;" parent="DK5eT5kbk5P_7S_4OPEw-60" vertex="1">
          <mxGeometry y="52" width="140" height="26" as="geometry" />
        </mxCell>
        <mxCell id="DK5eT5kbk5P_7S_4OPEw-65" value="Subtitle" style="text;strokeColor=#000000;fillColor=none;align=left;verticalAlign=top;spacingLeft=4;spacingRight=4;overflow=hidden;rotatable=0;points=[[0,0.5],[1,0.5]];portConstraint=eastwest;shadow=0;comic=0;" parent="DK5eT5kbk5P_7S_4OPEw-60" vertex="1">
          <mxGeometry y="78" width="140" height="26" as="geometry" />
        </mxCell>
        <mxCell id="DK5eT5kbk5P_7S_4OPEw-63" value="Description" style="text;strokeColor=#000000;fillColor=none;align=left;verticalAlign=top;spacingLeft=4;spacingRight=4;overflow=hidden;rotatable=0;points=[[0,0.5],[1,0.5]];portConstraint=eastwest;shadow=0;comic=0;" parent="DK5eT5kbk5P_7S_4OPEw-60" vertex="1">
          <mxGeometry y="104" width="140" height="26" as="geometry" />
        </mxCell>
        <mxCell id="DK5eT5kbk5P_7S_4OPEw-64" value="Image" style="text;strokeColor=#000000;fillColor=none;align=left;verticalAlign=top;spacingLeft=4;spacingRight=4;overflow=hidden;rotatable=0;points=[[0,0.5],[1,0.5]];portConstraint=eastwest;shadow=0;comic=0;" parent="DK5eT5kbk5P_7S_4OPEw-60" vertex="1">
          <mxGeometry y="130" width="140" height="26" as="geometry" />
        </mxCell>
        <mxCell id="Cdiy6JWCYsth_nG0e7zZ-30" value="QuizId" style="text;strokeColor=#000000;fillColor=none;align=left;verticalAlign=top;spacingLeft=4;spacingRight=4;overflow=hidden;rotatable=0;points=[[0,0.5],[1,0.5]];portConstraint=eastwest;shadow=0;comic=0;" vertex="1" parent="DK5eT5kbk5P_7S_4OPEw-60">
          <mxGeometry y="156" width="140" height="26" as="geometry" />
        </mxCell>
        <mxCell id="DK5eT5kbk5P_7S_4OPEw-76" value="Media" style="swimlane;fontStyle=0;childLayout=stackLayout;horizontal=1;startSize=26;fillColor=#ffe6cc;horizontalStack=0;resizeParent=1;resizeParentMax=0;resizeLast=0;collapsible=1;marginBottom=0;shadow=0;comic=0;glass=0;rounded=0;swimlaneFillColor=none;strokeColor=#d79b00;" parent="1" vertex="1">
          <mxGeometry x="560" y="720" width="140" height="78" as="geometry" />
        </mxCell>
        <mxCell id="DK5eT5kbk5P_7S_4OPEw-77" value="Id" style="text;strokeColor=#000000;fillColor=none;align=left;verticalAlign=top;spacingLeft=4;spacingRight=4;overflow=hidden;rotatable=0;points=[[0,0.5],[1,0.5]];portConstraint=eastwest;fontStyle=1;shadow=0;comic=0;" parent="DK5eT5kbk5P_7S_4OPEw-76" vertex="1">
          <mxGeometry y="26" width="140" height="26" as="geometry" />
        </mxCell>
        <mxCell id="DK5eT5kbk5P_7S_4OPEw-79" value="Link" style="text;strokeColor=#000000;fillColor=none;align=left;verticalAlign=top;spacingLeft=4;spacingRight=4;overflow=hidden;rotatable=0;points=[[0,0.5],[1,0.5]];portConstraint=eastwest;shadow=0;comic=0;" parent="DK5eT5kbk5P_7S_4OPEw-76" vertex="1">
          <mxGeometry y="52" width="140" height="26" as="geometry" />
        </mxCell>
        <mxCell id="Cdiy6JWCYsth_nG0e7zZ-26" style="edgeStyle=orthogonalEdgeStyle;rounded=0;orthogonalLoop=1;jettySize=auto;html=1;exitX=0;exitY=0.5;exitDx=0;exitDy=0;entryX=1;entryY=0.5;entryDx=0;entryDy=0;strokeWidth=2;" edge="1" parent="1" source="DK5eT5kbk5P_7S_4OPEw-61" target="Cdiy6JWCYsth_nG0e7zZ-24">
          <mxGeometry relative="1" as="geometry" />
        </mxCell>
        <mxCell id="Cdiy6JWCYsth_nG0e7zZ-17" value="TrainingContent" style="swimlane;fontStyle=0;childLayout=stackLayout;horizontal=1;startSize=26;fillColor=#ffe6cc;horizontalStack=0;resizeParent=1;resizeParentMax=0;resizeLast=0;collapsible=1;marginBottom=0;shadow=0;comic=0;glass=0;rounded=0;swimlaneFillColor=none;strokeColor=#d79b00;" vertex="1" parent="1">
          <mxGeometry x="130" y="498" width="140" height="104" as="geometry" />
        </mxCell>
        <mxCell id="Cdiy6JWCYsth_nG0e7zZ-19" value="Id" style="text;strokeColor=#000000;fillColor=none;align=left;verticalAlign=top;spacingLeft=4;spacingRight=4;overflow=hidden;rotatable=0;points=[[0,0.5],[1,0.5]];portConstraint=eastwest;shadow=0;comic=0;fontStyle=1" vertex="1" parent="Cdiy6JWCYsth_nG0e7zZ-17">
          <mxGeometry y="26" width="140" height="26" as="geometry" />
        </mxCell>
        <mxCell id="Cdiy6JWCYsth_nG0e7zZ-27" value="TrainingId" style="text;strokeColor=#000000;fillColor=none;align=left;verticalAlign=top;spacingLeft=4;spacingRight=4;overflow=hidden;rotatable=0;points=[[0,0.5],[1,0.5]];portConstraint=eastwest;shadow=0;comic=0;fontStyle=0" vertex="1" parent="Cdiy6JWCYsth_nG0e7zZ-17">
          <mxGeometry y="52" width="140" height="26" as="geometry" />
        </mxCell>
        <mxCell id="Cdiy6JWCYsth_nG0e7zZ-24" value="ContentId" style="text;strokeColor=#000000;fillColor=none;align=left;verticalAlign=top;spacingLeft=4;spacingRight=4;overflow=hidden;rotatable=0;points=[[0,0.5],[1,0.5]];portConstraint=eastwest;shadow=0;comic=0;fontStyle=0" vertex="1" parent="Cdiy6JWCYsth_nG0e7zZ-17">
          <mxGeometry y="78" width="140" height="26" as="geometry" />
        </mxCell>
        <mxCell id="Cdiy6JWCYsth_nG0e7zZ-28" style="edgeStyle=orthogonalEdgeStyle;rounded=0;orthogonalLoop=1;jettySize=auto;html=1;entryX=0;entryY=0.5;entryDx=0;entryDy=0;strokeWidth=2;" edge="1" parent="1" source="Cdiy6JWCYsth_nG0e7zZ-19" target="DK5eT5kbk5P_7S_4OPEw-2">
          <mxGeometry relative="1" as="geometry" />
        </mxCell>
        <mxCell id="Cdiy6JWCYsth_nG0e7zZ-31" style="edgeStyle=orthogonalEdgeStyle;rounded=0;orthogonalLoop=1;jettySize=auto;html=1;entryX=1;entryY=0.5;entryDx=0;entryDy=0;strokeWidth=2;" edge="1" parent="1" source="Cdiy6JWCYsth_nG0e7zZ-30" target="DK5eT5kbk5P_7S_4OPEw-95">
          <mxGeometry relative="1" as="geometry" />
        </mxCell>
        <mxCell id="Cdiy6JWCYsth_nG0e7zZ-32" style="edgeStyle=orthogonalEdgeStyle;rounded=0;orthogonalLoop=1;jettySize=auto;html=1;exitX=1;exitY=0.5;exitDx=0;exitDy=0;entryX=0;entryY=0.5;entryDx=0;entryDy=0;strokeWidth=2;" edge="1" parent="1" source="DK5eT5kbk5P_7S_4OPEw-64" target="DK5eT5kbk5P_7S_4OPEw-77">
          <mxGeometry relative="1" as="geometry" />
        </mxCell>
        <mxCell id="Cdiy6JWCYsth_nG0e7zZ-33" value="ContentPage" style="swimlane;fontStyle=0;childLayout=stackLayout;horizontal=1;startSize=26;fillColor=#ffe6cc;horizontalStack=0;resizeParent=1;resizeParentMax=0;resizeLast=0;collapsible=1;marginBottom=0;shadow=0;comic=0;glass=0;rounded=0;swimlaneFillColor=none;strokeColor=#d79b00;" vertex="1" parent="1">
          <mxGeometry x="340" y="810" width="140" height="208" as="geometry" />
        </mxCell>
        <mxCell id="Cdiy6JWCYsth_nG0e7zZ-34" value="Id" style="text;strokeColor=#000000;fillColor=none;align=left;verticalAlign=top;spacingLeft=4;spacingRight=4;overflow=hidden;rotatable=0;points=[[0,0.5],[1,0.5]];portConstraint=eastwest;fontStyle=1;shadow=0;comic=0;" vertex="1" parent="Cdiy6JWCYsth_nG0e7zZ-33">
          <mxGeometry y="26" width="140" height="26" as="geometry" />
        </mxCell>
        <mxCell id="Cdiy6JWCYsth_nG0e7zZ-40" value="ContentId" style="text;strokeColor=#000000;fillColor=none;align=left;verticalAlign=top;spacingLeft=4;spacingRight=4;overflow=hidden;rotatable=0;points=[[0,0.5],[1,0.5]];portConstraint=eastwest;fontStyle=0;shadow=0;comic=0;" vertex="1" parent="Cdiy6JWCYsth_nG0e7zZ-33">
          <mxGeometry y="52" width="140" height="26" as="geometry" />
        </mxCell>
        <mxCell id="Cdiy6JWCYsth_nG0e7zZ-35" value="Title" style="text;strokeColor=#000000;fillColor=none;align=left;verticalAlign=top;spacingLeft=4;spacingRight=4;overflow=hidden;rotatable=0;points=[[0,0.5],[1,0.5]];portConstraint=eastwest;shadow=0;comic=0;" vertex="1" parent="Cdiy6JWCYsth_nG0e7zZ-33">
          <mxGeometry y="78" width="140" height="26" as="geometry" />
        </mxCell>
        <mxCell id="Cdiy6JWCYsth_nG0e7zZ-36" value="Subtitle" style="text;strokeColor=#000000;fillColor=none;align=left;verticalAlign=top;spacingLeft=4;spacingRight=4;overflow=hidden;rotatable=0;points=[[0,0.5],[1,0.5]];portConstraint=eastwest;shadow=0;comic=0;" vertex="1" parent="Cdiy6JWCYsth_nG0e7zZ-33">
          <mxGeometry y="104" width="140" height="26" as="geometry" />
        </mxCell>
        <mxCell id="Cdiy6JWCYsth_nG0e7zZ-37" value="Text" style="text;strokeColor=#000000;fillColor=none;align=left;verticalAlign=top;spacingLeft=4;spacingRight=4;overflow=hidden;rotatable=0;points=[[0,0.5],[1,0.5]];portConstraint=eastwest;shadow=0;comic=0;" vertex="1" parent="Cdiy6JWCYsth_nG0e7zZ-33">
          <mxGeometry y="130" width="140" height="26" as="geometry" />
        </mxCell>
        <mxCell id="Cdiy6JWCYsth_nG0e7zZ-38" value="Media" style="text;strokeColor=#000000;fillColor=none;align=left;verticalAlign=top;spacingLeft=4;spacingRight=4;overflow=hidden;rotatable=0;points=[[0,0.5],[1,0.5]];portConstraint=eastwest;shadow=0;comic=0;" vertex="1" parent="Cdiy6JWCYsth_nG0e7zZ-33">
          <mxGeometry y="156" width="140" height="26" as="geometry" />
        </mxCell>
        <mxCell id="Cdiy6JWCYsth_nG0e7zZ-39" value="OrderNumber" style="text;strokeColor=#000000;fillColor=none;align=left;verticalAlign=top;spacingLeft=4;spacingRight=4;overflow=hidden;rotatable=0;points=[[0,0.5],[1,0.5]];portConstraint=eastwest;shadow=0;comic=0;" vertex="1" parent="Cdiy6JWCYsth_nG0e7zZ-33">
          <mxGeometry y="182" width="140" height="26" as="geometry" />
        </mxCell>
        <mxCell id="Cdiy6JWCYsth_nG0e7zZ-42" style="edgeStyle=orthogonalEdgeStyle;rounded=0;orthogonalLoop=1;jettySize=auto;html=1;entryX=1;entryY=0.5;entryDx=0;entryDy=0;strokeWidth=2;" edge="1" parent="1" source="Cdiy6JWCYsth_nG0e7zZ-40" target="DK5eT5kbk5P_7S_4OPEw-61">
          <mxGeometry relative="1" as="geometry">
            <Array as="points">
              <mxPoint x="500" y="875" />
              <mxPoint x="500" y="589" />
            </Array>
          </mxGeometry>
        </mxCell>
        <mxCell id="Cdiy6JWCYsth_nG0e7zZ-43" style="edgeStyle=orthogonalEdgeStyle;rounded=0;orthogonalLoop=1;jettySize=auto;html=1;entryX=1;entryY=0.5;entryDx=0;entryDy=0;strokeWidth=2;" edge="1" parent="1" source="Cdiy6JWCYsth_nG0e7zZ-38" target="DK5eT5kbk5P_7S_4OPEw-77">
          <mxGeometry relative="1" as="geometry" />
        </mxCell>
      </root>
    </mxGraphModel>
  </diagram>
</mxfile>
